<?xml version="1.0" encoding="UTF-8" ?>
<!DOCTYPE svg PUBLIC "-//W3C//DTD SVG 1.1//EN" "http://www.w3.org/Graphics/SVG/1.1/DTD/svg11.dtd">
<svg width="188pt" height="57pt" viewBox="0 0 188 57" version="1.1" xmlns="http://www.w3.org/2000/svg">
<g id="#888334ff">
</g>
<g id="#2a250eff">
<path fill="#2a250e" opacity="1.00" d=" M 148.79 3.85 C 150.90 1.95 154.01 1.92 156.64 2.45 C 159.06 2.80 159.89 5.34 160.94 7.19 C 158.86 8.71 156.67 10.15 155.00 12.14 C 155.45 15.73 158.80 17.56 161.68 19.09 C 164.22 17.06 166.90 14.85 170.25 14.44 C 174.29 13.86 178.89 14.12 182.11 16.91 C 185.19 19.68 187.21 23.78 187.15 27.95 C 187.13 30.62 184.73 33.12 182.00 32.93 C 178.08 33.05 174.11 32.90 170.30 33.96 C 171.18 34.97 171.83 36.27 173.01 36.97 C 175.55 37.64 178.20 37.74 180.76 38.34 C 181.61 40.18 181.49 42.27 181.76 44.24 C 178.99 45.32 176.14 46.77 173.07 46.34 C 168.02 45.83 162.42 43.53 160.41 38.51 C 158.92 33.97 160.17 29.11 159.41 24.47 C 158.63 22.21 155.43 22.47 154.66 24.61 C 152.89 30.44 154.90 36.67 153.62 42.58 C 152.13 46.85 145.11 45.99 144.26 41.74 C 143.55 36.90 144.42 31.99 143.84 27.14 C 143.67 24.59 141.53 22.89 140.02 21.07 C 135.35 27.35 139.04 35.44 137.40 42.49 C 136.57 45.23 133.32 45.00 131.04 45.04 C 123.14 44.84 115.24 46.52 107.37 45.42 C 105.13 45.14 103.49 43.03 103.45 40.83 C 102.99 35.23 103.52 29.61 103.40 23.99 C 103.45 19.39 103.07 14.76 103.51 10.17 C 103.65 7.46 105.94 5.54 108.14 4.30 C 110.36 4.86 112.33 6.51 113.22 8.62 C 113.97 11.68 113.68 14.87 113.69 17.99 C 113.51 23.91 113.55 29.85 114.10 35.76 C 118.62 36.41 123.22 36.79 127.76 36.09 C 127.92 31.69 127.77 27.29 128.07 22.90 C 128.26 19.83 129.30 16.91 129.66 13.87 C 129.70 11.59 128.77 9.44 128.56 7.20 C 129.07 4.72 131.96 2.57 134.50 3.56 C 136.25 4.11 137.83 5.47 138.36 7.27 C 137.54 10.58 136.20 13.75 135.71 17.14 C 137.81 16.65 140.66 17.08 141.93 14.93 C 144.41 11.36 145.39 6.76 148.79 3.85 M 149.29 5.32 C 146.50 8.47 145.89 12.81 144.46 16.63 C 144.49 18.75 144.56 20.87 144.69 22.99 L 145.67 22.94 C 145.84 24.95 145.99 26.97 146.12 28.99 C 146.04 30.32 145.96 31.66 145.88 32.99 C 146.30 35.94 147.07 38.82 148.23 41.57 C 148.84 41.64 150.05 41.80 150.65 41.88 C 150.80 39.24 150.96 36.60 151.14 33.96 C 151.04 32.28 150.93 30.59 150.83 28.91 C 151.12 26.76 151.39 24.61 151.66 22.46 C 153.25 21.68 154.37 20.21 155.66 19.03 C 154.60 17.98 153.94 16.34 152.44 15.85 C 152.19 11.28 154.92 7.48 156.95 3.63 C 154.38 3.87 151.16 3.05 149.29 5.32 M 133.47 4.46 C 132.48 5.69 131.49 6.93 130.51 8.17 C 131.71 9.25 132.91 10.33 134.13 11.40 C 135.31 9.03 134.83 6.63 133.47 4.46 M 105.75 11.09 C 105.28 14.34 105.58 17.63 105.69 20.89 C 105.60 22.24 105.58 23.59 105.64 24.94 C 104.81 29.47 104.92 34.14 105.61 38.69 C 105.75 40.65 107.43 42.18 109.33 42.43 C 113.12 43.07 116.98 42.73 120.79 42.63 C 120.79 41.65 120.77 40.66 120.75 39.68 C 118.20 39.24 115.50 39.12 113.14 37.95 C 111.19 36.31 112.07 33.37 111.84 31.14 C 112.16 28.03 111.84 24.90 111.52 21.80 C 111.44 17.95 111.84 14.04 111.02 10.25 C 110.73 8.84 109.37 8.08 108.08 7.80 C 106.93 8.57 105.85 9.62 105.75 11.09 M 168.34 17.39 C 165.50 18.74 163.75 21.46 162.03 23.96 C 161.27 28.23 160.41 33.20 163.13 36.98 C 164.72 38.99 166.14 41.31 168.45 42.58 C 171.21 43.94 174.41 43.29 177.07 42.04 C 173.16 40.90 169.47 39.07 166.45 36.32 C 167.11 34.64 167.73 32.93 168.63 31.36 C 172.74 29.94 177.19 31.13 181.40 30.31 C 183.73 29.75 183.79 26.93 184.61 25.12 C 183.79 23.42 183.09 21.62 181.93 20.11 C 178.56 16.55 172.80 14.98 168.34 17.39 M 130.95 17.98 C 130.85 20.27 130.78 22.57 130.71 24.86 C 130.76 27.50 130.79 30.14 130.85 32.78 C 130.98 35.81 131.15 38.84 131.37 41.87 C 132.84 41.35 134.33 40.87 135.81 40.37 C 135.89 38.24 135.95 36.12 136.03 34.00 C 136.04 31.31 136.08 28.61 136.14 25.92 C 136.08 23.65 136.02 21.37 135.96 19.10 C 134.29 18.72 132.62 18.35 130.95 17.98 Z" />
<path fill="#2a250e" opacity="1.00" d=" M 4.52 5.68 C 8.29 4.93 12.17 5.40 15.99 5.34 C 20.55 5.46 25.14 4.97 29.67 5.55 C 32.97 5.72 33.71 10.50 31.70 12.54 C 29.18 13.55 26.46 13.96 23.95 14.98 C 22.96 16.05 22.87 17.60 22.69 18.97 C 22.02 26.28 23.66 33.60 23.03 40.91 C 22.75 46.33 13.10 47.26 12.18 41.80 C 11.41 34.53 12.45 27.22 12.21 19.94 C 12.12 18.52 12.05 17.03 11.34 15.76 C 8.37 13.33 3.17 13.74 1.53 9.82 C 1.85 8.11 2.87 6.38 4.52 5.68 M 5.12 10.89 C 7.71 11.30 10.30 11.71 12.89 12.14 C 13.58 13.28 14.26 14.42 14.94 15.56 C 14.82 18.52 14.74 21.48 14.74 24.44 C 14.78 26.88 14.81 29.32 14.85 31.75 C 14.89 33.05 14.93 34.34 14.98 35.63 C 15.10 37.69 15.22 39.75 15.34 41.81 C 16.79 41.79 18.24 41.78 19.69 41.77 C 19.79 40.14 19.89 38.52 20.00 36.90 C 20.01 35.16 20.03 33.42 20.05 31.69 C 20.05 29.69 20.06 27.69 20.08 25.70 C 20.11 22.38 20.06 19.06 19.87 15.75 C 21.10 14.41 22.16 12.78 23.81 11.92 C 26.08 11.23 28.47 11.20 30.81 10.97 C 29.53 9.56 28.22 8.18 26.96 6.75 C 20.30 6.54 13.63 6.56 6.97 6.70 C 6.36 8.09 5.74 9.49 5.12 10.89 Z" />
<path fill="#2a250e" opacity="1.00" d=" M 31.86 18.83 C 35.70 14.46 42.11 13.49 47.56 14.63 C 51.65 15.65 54.72 18.75 57.94 21.27 C 59.40 18.80 60.33 15.61 63.08 14.25 C 66.49 15.14 69.53 17.65 70.64 21.06 C 71.61 22.98 71.88 25.55 73.99 26.63 C 78.18 23.85 77.03 17.01 81.88 14.90 C 83.89 13.72 86.22 14.93 87.63 16.48 C 88.12 21.34 85.92 25.90 84.37 30.37 C 81.55 37.73 79.89 45.52 76.55 52.67 C 75.01 56.37 68.96 57.63 66.87 53.73 C 66.49 49.16 68.63 44.49 66.91 40.02 C 64.99 34.65 62.84 29.37 60.83 24.03 C 60.19 23.97 58.93 23.86 58.30 23.80 C 58.59 28.23 58.98 32.90 57.11 37.07 C 54.84 42.68 48.75 45.81 42.97 46.30 C 36.31 46.33 28.94 41.88 28.02 34.85 C 27.56 29.36 27.84 23.05 31.86 18.83 M 35.50 18.43 C 33.15 19.87 32.04 22.49 30.76 24.80 C 30.06 27.92 30.10 31.13 30.65 34.27 C 31.82 36.85 33.42 39.21 35.45 41.20 L 34.96 41.72 C 38.28 43.09 41.91 44.43 45.53 43.41 C 49.11 42.75 51.65 39.97 53.94 37.38 C 54.60 35.86 55.32 34.37 56.02 32.87 C 55.93 30.11 55.72 27.36 55.35 24.64 C 54.33 22.46 53.50 20.02 51.54 18.48 C 49.77 16.92 47.33 16.59 45.06 16.48 C 41.80 16.35 38.28 16.51 35.50 18.43 M 61.88 18.20 C 62.12 19.99 62.38 21.79 62.62 23.59 C 63.83 26.04 64.97 28.52 66.04 31.04 C 67.20 34.07 68.62 37.01 70.40 39.73 C 71.21 44.02 70.32 48.42 71.14 52.69 C 71.44 52.62 72.06 52.47 72.37 52.39 C 75.09 48.60 76.29 43.99 77.71 39.61 C 78.94 36.77 80.12 33.92 81.25 31.04 C 82.83 27.32 84.36 23.59 85.83 19.83 C 84.23 19.12 82.61 18.43 81.00 17.74 C 79.25 20.88 77.93 24.25 77.30 27.81 C 76.50 30.54 75.41 33.17 74.14 35.72 C 72.72 33.40 71.39 31.02 70.11 28.63 C 69.60 26.72 69.10 24.81 68.60 22.90 C 67.52 21.03 66.43 19.17 65.34 17.31 C 64.47 17.53 62.75 17.97 61.88 18.20 Z" />
<path fill="#2a250e" opacity="1.00" d=" M 35.43 25.77 C 37.61 23.73 39.74 20.84 43.04 20.92 C 46.08 20.65 48.21 23.15 50.36 24.87 C 50.56 27.14 50.79 29.42 50.84 31.70 C 50.62 32.83 50.36 33.96 50.07 35.08 C 48.70 36.76 47.29 38.56 45.28 39.50 C 42.78 40.01 40.27 39.13 37.81 38.72 C 37.13 37.15 36.45 35.59 35.85 33.99 C 35.50 31.26 35.48 28.51 35.43 25.77 M 42.26 23.12 C 37.57 24.19 36.80 30.48 39.10 34.00 C 40.28 35.62 42.35 37.43 44.49 36.55 C 47.92 34.30 48.91 29.33 47.30 25.70 C 46.28 24.10 44.21 22.69 42.26 23.12 Z" />
<path fill="#2a250e" opacity="1.00" d=" M 168.85 26.90 C 170.18 26.63 171.52 26.36 172.87 26.14 C 173.35 26.08 174.31 25.98 174.79 25.93 C 175.42 26.28 176.67 26.98 177.29 27.33 C 174.55 28.68 171.39 28.75 168.85 26.90 Z" />
</g>
<g id="#a2b079ff">
<path fill="#a2b079" opacity="1.00" d=" M 149.29 5.32 C 151.16 3.05 154.38 3.87 156.95 3.63 C 154.92 7.48 152.19 11.28 152.44 15.85 C 149.77 15.96 147.11 16.30 144.46 16.63 C 145.89 12.81 146.50 8.47 149.29 5.32 Z" />
</g>
<g id="#979c71ff">
<path fill="#979c71" opacity="1.00" d=" M 133.47 4.46 C 134.83 6.63 135.31 9.03 134.13 11.40 C 132.91 10.33 131.71 9.25 130.51 8.17 C 131.49 6.93 132.48 5.69 133.47 4.46 Z" />
</g>
<g id="#9faf75ff">
<path fill="#9faf75" opacity="1.00" d=" M 5.12 10.89 C 5.74 9.49 6.36 8.09 6.97 6.70 C 13.63 6.56 20.30 6.54 26.96 6.75 C 28.22 8.18 29.53 9.56 30.81 10.97 C 28.47 11.20 26.08 11.23 23.81 11.92 C 22.16 12.78 21.10 14.41 19.87 15.75 C 18.23 15.69 16.59 15.63 14.94 15.56 C 14.26 14.42 13.58 13.28 12.89 12.14 C 10.30 11.71 7.71 11.30 5.12 10.89 Z" />
</g>
<g id="#92a36dff">
<path fill="#92a36d" opacity="1.00" d=" M 105.75 11.09 C 105.85 9.62 106.93 8.57 108.08 7.80 C 109.37 8.08 110.73 8.84 111.02 10.25 C 111.84 14.04 111.44 17.95 111.52 21.80 C 109.57 21.50 107.63 21.19 105.69 20.89 C 105.58 17.63 105.28 14.34 105.75 11.09 Z" />
</g>
<g id="#889465ff">
<path fill="#889465" opacity="1.00" d=" M 14.94 15.56 C 16.59 15.63 18.23 15.69 19.87 15.75 C 20.06 19.06 20.11 22.38 20.08 25.70 C 18.30 25.27 16.52 24.85 14.74 24.44 C 14.74 21.48 14.82 18.52 14.94 15.56 Z" />
</g>
<g id="#889361ff">
<path fill="#889361" opacity="1.00" d=" M 144.46 16.63 C 147.11 16.30 149.77 15.96 152.44 15.85 C 153.94 16.34 154.60 17.98 155.66 19.03 C 154.37 20.21 153.25 21.68 151.66 22.46 C 149.67 22.72 147.67 22.84 145.67 22.94 L 144.69 22.99 C 144.56 20.87 144.49 18.75 144.46 16.63 Z" />
</g>
<g id="#889164ff">
<path fill="#889164" opacity="1.00" d=" M 168.34 17.39 C 172.80 14.98 178.56 16.55 181.93 20.11 C 183.09 21.62 183.79 23.42 184.61 25.12 C 183.05 25.07 181.50 25.02 179.95 24.95 C 177.85 22.79 175.79 19.12 172.23 19.94 C 169.71 20.76 168.14 23.12 166.34 24.91 C 164.90 24.59 163.46 24.27 162.03 23.96 C 163.75 21.46 165.50 18.74 168.34 17.39 Z" />
</g>
<g id="#8c9463ff">
<path fill="#8c9463" opacity="1.00" d=" M 35.50 18.43 C 38.28 16.51 41.80 16.35 45.06 16.48 C 47.33 16.59 49.77 16.92 51.54 18.48 C 53.50 20.02 54.33 22.46 55.35 24.64 C 53.69 24.72 52.03 24.80 50.36 24.87 C 48.21 23.15 46.08 20.65 43.04 20.92 C 39.74 20.84 37.61 23.73 35.43 25.77 C 33.87 25.45 32.31 25.13 30.76 24.80 C 32.04 22.49 33.15 19.87 35.50 18.43 Z" />
</g>
<g id="#8b9263ff">
<path fill="#8b9263" opacity="1.00" d=" M 61.88 18.20 C 62.75 17.97 64.47 17.53 65.34 17.31 C 66.43 19.17 67.52 21.03 68.60 22.90 C 66.60 23.13 64.61 23.37 62.62 23.59 C 62.38 21.79 62.12 19.99 61.88 18.20 Z" />
</g>
<g id="#7a885aff">
<path fill="#7a885a" opacity="1.00" d=" M 81.00 17.74 C 82.61 18.43 84.23 19.12 85.83 19.83 C 84.36 23.59 82.83 27.32 81.25 31.04 C 79.94 29.96 78.62 28.88 77.30 27.81 C 77.93 24.25 79.25 20.88 81.00 17.74 Z" />
</g>
<g id="#838e64ff">
<path fill="#838e64" opacity="1.00" d=" M 130.95 17.98 C 132.62 18.35 134.29 18.72 135.96 19.10 C 136.02 21.37 136.08 23.65 136.14 25.92 C 134.33 25.57 132.52 25.21 130.71 24.86 C 130.78 22.57 130.85 20.27 130.95 17.98 Z" />
</g>
<g id="#262b14ff">
<path fill="#262b14" opacity="1.00" d=" M 166.34 24.91 C 168.14 23.12 169.71 20.76 172.23 19.94 C 175.79 19.12 177.85 22.79 179.95 24.95 C 179.08 25.76 178.19 26.56 177.29 27.33 C 176.67 26.98 175.42 26.28 174.79 25.93 C 174.27 24.39 173.73 22.85 173.19 21.31 C 173.06 22.92 172.97 24.53 172.87 26.14 C 171.52 26.36 170.18 26.63 168.85 26.90 C 168.00 26.25 167.16 25.58 166.34 24.91 Z" />
</g>
<g id="#7a885cff">
<path fill="#7a885c" opacity="1.00" d=" M 105.69 20.89 C 107.63 21.19 109.57 21.50 111.52 21.80 C 111.26 23.15 111.01 24.50 110.77 25.85 C 109.07 25.91 107.36 25.94 105.66 25.95 L 105.64 24.94 C 105.58 23.59 105.60 22.24 105.69 20.89 Z" />
</g>
<g id="#676c4bff">
<path fill="#676c4b" opacity="1.00" d=" M 111.52 21.80 C 111.84 24.90 112.16 28.03 111.84 31.14 C 110.17 32.40 108.17 33.05 106.23 33.75 C 106.10 31.14 105.67 28.56 105.66 25.95 C 107.36 25.94 109.07 25.91 110.77 25.85 C 111.01 24.50 111.26 23.15 111.52 21.80 Z" />
</g>
<g id="#757c57ff">
<path fill="#757c57" opacity="1.00" d=" M 145.67 22.94 C 147.67 22.84 149.67 22.72 151.66 22.46 C 151.39 24.61 151.12 26.76 150.83 28.91 C 149.26 28.94 147.69 28.96 146.12 28.99 C 145.99 26.97 145.84 24.95 145.67 22.94 Z" />
</g>
<g id="#6a7a4fff">
<path fill="#6a7a4f" opacity="1.00" d=" M 62.62 23.59 C 64.61 23.37 66.60 23.13 68.60 22.90 C 69.10 24.81 69.60 26.72 70.11 28.63 C 68.76 29.43 67.40 30.23 66.04 31.04 C 64.97 28.52 63.83 26.04 62.62 23.59 Z" />
</g>
<g id="#656f4cff">
<path fill="#656f4c" opacity="1.00" d=" M 14.74 24.44 C 16.52 24.85 18.30 25.27 20.08 25.70 C 20.06 27.69 20.05 29.69 20.05 31.69 C 18.31 31.70 16.58 31.73 14.85 31.75 C 14.81 29.32 14.78 26.88 14.74 24.44 Z" />
</g>
<g id="#626746ff">
<path fill="#626746" opacity="1.00" d=" M 162.03 23.96 C 163.46 24.27 164.90 24.59 166.34 24.91 C 167.16 25.58 168.00 26.25 168.85 26.90 C 171.39 28.75 174.55 28.68 177.29 27.33 C 178.19 26.56 179.08 25.76 179.95 24.95 C 181.50 25.02 183.05 25.07 184.61 25.12 C 183.79 26.93 183.73 29.75 181.40 30.31 C 177.19 31.13 172.74 29.94 168.63 31.36 C 167.73 32.93 167.11 34.64 166.45 36.32 C 165.34 36.55 164.24 36.78 163.13 36.98 C 160.41 33.20 161.27 28.23 162.03 23.96 Z" />
</g>
<g id="#636a49ff">
<path fill="#636a49" opacity="1.00" d=" M 30.76 24.80 C 32.31 25.13 33.87 25.45 35.43 25.77 C 35.48 28.51 35.50 31.26 35.85 33.99 C 34.11 34.08 32.38 34.17 30.65 34.27 C 30.10 31.13 30.06 27.92 30.76 24.80 Z" />
</g>
<g id="#6a734dff">
<path fill="#6a734d" opacity="1.00" d=" M 50.36 24.87 C 52.03 24.80 53.69 24.72 55.35 24.64 C 55.72 27.36 55.93 30.11 56.02 32.87 C 54.29 32.48 52.57 32.09 50.84 31.70 C 50.79 29.42 50.56 27.14 50.36 24.87 Z" />
</g>
<g id="#373d2dff">
<path fill="#373d2d" opacity="1.00" d=" M 105.61 38.69 C 104.92 34.14 104.81 29.47 105.64 24.94 L 105.66 25.95 C 105.67 28.56 106.10 31.14 106.23 33.75 C 108.17 33.05 110.17 32.40 111.84 31.14 C 112.07 33.37 111.19 36.31 113.14 37.95 C 115.50 39.12 118.20 39.24 120.75 39.68 C 120.77 40.66 120.79 41.65 120.79 42.63 C 116.98 42.73 113.12 43.07 109.33 42.43 C 107.43 42.18 105.75 40.65 105.61 38.69 Z" />
</g>
<g id="#636d48ff">
<path fill="#636d48" opacity="1.00" d=" M 130.71 24.86 C 132.52 25.21 134.33 25.57 136.14 25.92 C 136.08 28.61 136.04 31.31 136.03 34.00 C 134.30 33.59 132.58 33.19 130.85 32.78 C 130.79 30.14 130.76 27.50 130.71 24.86 Z" />
</g>
<g id="#4c5038ff">
<path fill="#4c5038" opacity="1.00" d=" M 77.30 27.81 C 78.62 28.88 79.94 29.96 81.25 31.04 C 80.12 33.92 78.94 36.77 77.71 39.61 C 75.27 39.63 72.83 39.67 70.40 39.73 C 68.62 37.01 67.20 34.07 66.04 31.04 C 67.40 30.23 68.76 29.43 70.11 28.63 C 71.39 31.02 72.72 33.40 74.14 35.72 C 75.41 33.17 76.50 30.54 77.30 27.81 Z" />
</g>
<g id="#616647ff">
<path fill="#616647" opacity="1.00" d=" M 146.12 28.99 C 147.69 28.96 149.26 28.94 150.83 28.91 C 150.93 30.59 151.04 32.28 151.14 33.96 C 149.38 33.63 147.63 33.31 145.88 32.99 C 145.96 31.66 146.04 30.32 146.12 28.99 Z" />
</g>
<g id="#50583dff">
<path fill="#50583d" opacity="1.00" d=" M 14.85 31.75 C 16.58 31.73 18.31 31.70 20.05 31.69 C 20.03 33.42 20.01 35.16 20.00 36.90 C 18.32 36.47 16.65 36.05 14.98 35.63 C 14.93 34.34 14.89 33.05 14.85 31.75 Z" />
</g>
<g id="#515737ff">
<path fill="#515737" opacity="1.00" d=" M 50.07 35.08 C 50.36 33.96 50.62 32.83 50.84 31.70 C 52.57 32.09 54.29 32.48 56.02 32.87 C 55.32 34.37 54.60 35.86 53.94 37.38 C 52.65 36.61 51.36 35.85 50.07 35.08 Z" />
</g>
<g id="#444a34ff">
<path fill="#444a34" opacity="1.00" d=" M 130.85 32.78 C 132.58 33.19 134.30 33.59 136.03 34.00 C 135.95 36.12 135.89 38.24 135.81 40.37 C 134.33 40.87 132.84 41.35 131.37 41.87 C 131.15 38.84 130.98 35.81 130.85 32.78 Z" />
</g>
<g id="#4a4c34ff">
<path fill="#4a4c34" opacity="1.00" d=" M 145.88 32.99 C 147.63 33.31 149.38 33.63 151.14 33.96 C 150.96 36.60 150.80 39.24 150.65 41.88 C 150.05 41.80 148.84 41.64 148.23 41.57 C 147.07 38.82 146.30 35.94 145.88 32.99 Z" />
</g>
<g id="#464a38ff">
<path fill="#464a38" opacity="1.00" d=" M 30.65 34.27 C 32.38 34.17 34.11 34.08 35.85 33.99 C 36.45 35.59 37.13 37.15 37.81 38.72 C 37.02 39.55 36.24 40.37 35.45 41.20 C 33.42 39.21 31.82 36.85 30.65 34.27 Z" />
</g>
<g id="#3c3e26ff">
<path fill="#3c3e26" opacity="1.00" d=" M 14.98 35.63 C 16.65 36.05 18.32 36.47 20.00 36.90 C 19.89 38.52 19.79 40.14 19.69 41.77 C 18.24 41.78 16.79 41.79 15.34 41.81 C 15.22 39.75 15.10 37.69 14.98 35.63 Z" />
</g>
<g id="#353827ff">
<path fill="#353827" opacity="1.00" d=" M 45.28 39.50 C 47.29 38.56 48.70 36.76 50.07 35.08 C 51.36 35.85 52.65 36.61 53.94 37.38 C 51.65 39.97 49.11 42.75 45.53 43.41 C 41.91 44.43 38.28 43.09 34.96 41.72 L 35.45 41.20 C 36.24 40.37 37.02 39.55 37.81 38.72 C 40.27 39.13 42.78 40.01 45.28 39.50 Z" />
</g>
<g id="#393c27ff">
<path fill="#393c27" opacity="1.00" d=" M 166.45 36.32 C 169.47 39.07 173.16 40.90 177.07 42.04 C 174.41 43.29 171.21 43.94 168.45 42.58 C 166.14 41.31 164.72 38.99 163.13 36.98 C 164.24 36.78 165.34 36.55 166.45 36.32 Z" />
</g>
<g id="#2f3322ff">
<path fill="#2f3322" opacity="1.00" d=" M 70.40 39.73 C 72.83 39.67 75.27 39.63 77.71 39.61 C 76.29 43.99 75.09 48.60 72.37 52.39 C 72.06 52.47 71.44 52.62 71.14 52.69 C 70.32 48.42 71.21 44.02 70.40 39.73 Z" />
</g>
</svg>
